# xmcd
#
# Track frame offsets:
#	180
#	37226
#	73106
#	118264
#	150444
#	183497
#	232275
#	266207
#	285098
#	308580
#
# Disc length: 4421 seconds
#
# Revision: 1
# Processed by: cddbd v1.5.2PL0 Copyright (c) Steve Scherf et al.
# Submitted via: audiograbber 1.83.01
#
DISCID=9111430a
DTITLE=Mick Pluto - Mick Pluto Box - permanence
DYEAR=2012
DGENRE=Electronic
TTITLE0=Emulsion pour le corps
TTITLE1=Wheel of Destiny
TTITLE2=Permanence
TTITLE3=Kaleidoscope
TTITLE4=Mercomotril
TTITLE5=Brainsurge
TTITLE6=Energy
TTITLE7=Pop
TTITLE8=Anne
TTITLE9=Fear
EXTD=
EXTT0=
EXTT1=
EXTT2=
EXTT3=
EXTT4=
EXTT5=
EXTT6=
EXTT7=
EXTT8=
EXTT9=
PLAYORDER=
